<?xml version="1.0" standalone="no"?>
<!DOCTYPE svg PUBLIC "-//W3C//DTD SVG 20010904//EN"
 "http://www.w3.org/TR/2001/REC-SVG-20010904/DTD/svg10.dtd">
<svg version="1.0" xmlns="http://www.w3.org/2000/svg"
 width="1371.000000pt" height="768.000000pt" viewBox="0 0 1371.000000 768.000000"
 preserveAspectRatio="xMidYMid meet">

<g transform="translate(0.000000,768.000000) scale(0.100000,-0.100000)"
fill="#000000" stroke="none">
<path d="M6645 6378 c-33 -19 -44 -41 -45 -85 0 -54 42 -93 101 -93 l40 0 -3
-37 -3 -38 -125 -26 c-145 -30 -212 -49 -301 -87 -91 -38 -277 -139 -320 -173
-43 -33 -57 -36 -74 -12 -11 15 -8 23 16 52 34 42 37 78 8 115 -16 20 -29 26
-58 26 -32 0 -50 -10 -117 -67 -152 -130 -184 -165 -184 -204 0 -38 27 -71 66
-83 23 -7 74 11 74 26 0 15 22 8 39 -14 18 -21 17 -23 -40 -90 -112 -135 -216
-309 -274 -463 -15 -38 -42 -131 -62 -205 -32 -123 -36 -151 -40 -310 -5 -148
-2 -194 16 -298 70 -410 300 -785 622 -1014 334 -239 686 -298 1044 -177 118
41 278 130 365 204 59 50 162 156 157 161 -2 3 -31 -11 -63 -30 -144 -86 -303
-137 -482 -157 -226 -24 -451 20 -675 132 -324 163 -566 467 -659 827 -27 106
-30 133 -31 287 -2 190 12 283 65 435 52 147 117 263 218 385 31 39 74 97 95
130 70 110 173 241 239 302 199 187 443 298 719 328 l58 7 -3 31 c-3 30 -1 32
37 38 58 8 82 24 95 65 9 27 9 42 0 64 -24 57 -38 60 -277 60 -145 -1 -225 -4
-238 -12z"/>
<path d="M7015 6050 c-146 -17 -293 -55 -405 -107 -114 -53 -282 -177 -360
-266 -22 -25 -14 -23 90 27 206 99 385 134 615 122 181 -9 352 -56 505 -139
121 -65 279 -194 363 -295 15 -19 27 -30 27 -25 0 4 6 -3 14 -17 7 -14 41 -69
75 -122 33 -53 61 -102 61 -108 0 -6 5 -8 12 -4 6 4 8 3 5 -3 -3 -5 5 -36 18
-69 79 -195 114 -462 84 -644 -19 -124 -59 -268 -94 -345 -19 -43 -35 -81 -35
-86 0 -17 124 -9 168 11 61 28 149 122 183 194 90 194 102 461 33 746 -59 244
-167 457 -343 675 -44 54 -48 70 -26 99 14 18 15 18 45 -8 36 -30 36 -30 78
-15 22 8 34 20 42 45 17 52 7 76 -57 130 -32 27 -89 77 -127 112 -72 64 -97
73 -139 51 -30 -16 -37 -28 -37 -66 0 -22 10 -44 31 -68 37 -42 56 -46 33 -7
l-16 27 20 -23 c20 -22 20 -58 0 -46 -5 3 -18 -2 -28 -11 -21 -19 -28 -16
-105 36 -76 51 -286 145 -375 168 -79 20 -235 43 -270 40 -8 -1 -46 -5 -85 -9z
m-82 -37 c-7 -2 -19 -2 -25 0 -7 3 -2 5 12 5 14 0 19 -2 13 -5z m1017 -77 c0
-2 -7 -7 -16 -10 -8 -3 -12 -2 -9 4 6 10 25 14 25 6z m-37 -49 c4 3 7 -1 7
-10 0 -22 -3 -21 -26 5 -12 14 -13 18 -3 10 9 -6 19 -9 22 -5z m-953 -7 c0 -5
-5 -10 -11 -10 -5 0 -7 5 -4 10 3 6 8 10 11 10 2 0 4 -4 4 -10z m-365 -65
c-27 -8 -57 -14 -65 -14 -24 1 63 27 90 27 14 0 3 -6 -25 -13z m1285 -15 c0
-5 -5 -10 -11 -10 -5 0 -7 5 -4 10 3 6 8 10 11 10 2 0 4 -4 4 -10z m-366 -79
c4 -5 -3 -7 -14 -4 -23 6 -26 13 -6 13 8 0 17 -4 20 -9z m16 -46 c14 -8 21
-14 15 -14 -5 0 -21 6 -35 14 -14 8 -20 14 -15 14 6 0 21 -6 35 -14z m490
-131 c0 -16 16 -19 23 -4 3 6 4 5 3 -2 -1 -7 -11 -13 -22 -14 -13 -1 -19 6
-19 22 0 12 3 20 8 17 4 -2 7 -11 7 -19z m80 -79 c0 -5 -5 -3 -10 5 -5 8 -10
20 -10 25 0 6 5 3 10 -5 5 -8 10 -19 10 -25z m-294 -10 c13 -13 13 -15 1 -15
-8 0 -17 7 -21 15 -3 8 -3 15 0 15 3 0 12 -7 20 -15z m91 -31 c3 -8 2 -19 -3
-24 -13 -12 -54 7 -54 25 0 20 49 20 57 -1z m355 -240 c-5 -9 -8 -1 -9 23 -1
33 0 35 8 15 5 -13 5 -30 1 -38z m8 -49 c0 -8 -2 -15 -4 -15 -2 0 -6 7 -10 15
-3 8 -1 15 4 15 6 0 10 -7 10 -15z m-204 -52 c-8 -15 -15 -25 -16 -21 0 12 23
58 27 54 3 -2 -2 -17 -11 -33z m27 -51 c2 7 6 11 9 8 3 -3 0 -15 -7 -27 -11
-21 -11 -21 -23 10 -10 28 -10 30 2 14 10 -13 15 -15 19 -5z m290 -206 c6 -58
6 -58 -14 -38 -21 23 -25 42 -9 42 6 0 10 14 10 32 0 48 7 30 13 -36z m-3
-386 c0 -5 -4 -10 -10 -10 -5 0 -10 5 -10 10 0 6 5 10 10 10 6 0 10 -4 10 -10z
m-223 -32 c-3 -7 -5 -2 -5 12 0 14 2 19 5 13 2 -7 2 -19 0 -25z m230 -50 c-3
-8 -6 -5 -6 6 -1 11 2 17 5 13 3 -3 4 -12 1 -19z m-20 -11 c8 -17 7 -26 -5
-37 -14 -13 -15 -12 -9 4 4 9 2 26 -3 37 -6 10 -7 19 -2 19 5 0 13 -10 19 -23z
m10 -59 c-3 -8 -6 -5 -6 6 -1 11 2 17 5 13 3 -3 4 -12 1 -19z m-127 -197 c-12
-23 -25 -27 -35 -10 -4 6 2 13 14 16 12 3 21 10 21 16 0 6 3 8 6 5 3 -4 1 -16
-6 -27z"/>
<path d="M6835 5679 c-43 -13 -75 -65 -75 -123 0 -41 5 -53 34 -82 29 -29 57
-40 88 -35 34 5 240 -33 295 -55 203 -80 363 -219 449 -390 26 -53 29 -69 29
-154 0 -80 -4 -103 -24 -144 -51 -102 -137 -160 -266 -176 -86 -11 -104 -22
-130 -80 -29 -64 -14 -94 151 -318 82 -111 167 -227 189 -258 36 -51 74 -89
170 -167 27 -23 28 -27 16 -53 -26 -59 -122 -191 -183 -254 -173 -179 -328
-279 -558 -360 l-85 -30 65 5 c542 48 1017 377 1267 880 11 22 24 50 28 63 6
22 3 21 -42 -11 -76 -55 -119 -69 -208 -71 -97 -1 -145 19 -220 93 -27 27 -54
47 -59 44 -5 -4 -6 -1 -2 6 7 10 -54 103 -88 136 -6 6 -34 44 -63 86 l-51 75
36 19 c54 29 92 57 86 66 -2 4 1 11 7 15 8 4 9 3 5 -4 -17 -28 13 -8 55 36 68
70 120 163 136 240 9 46 8 44 18 65 4 9 5 61 3 115 -6 117 -41 229 -99 317
-44 68 -113 149 -105 123 2 -9 -2 -24 -10 -35 -9 -10 -13 -12 -9 -5 4 7 8 26
10 41 3 24 -5 37 -48 78 -163 155 -389 267 -602 299 -101 16 -166 16 -210 3z
m560 -147 c-3 -3 -11 0 -18 7 -9 10 -8 11 6 5 10 -3 15 -9 12 -12z m285 -213
c0 -4 -7 -6 -15 -3 -8 4 -15 10 -15 15 0 4 7 6 15 3 8 -4 15 -10 15 -15z m-49
-32 c-10 -9 -11 -8 -5 6 3 10 9 15 12 12 3 -3 0 -11 -7 -18z m256 -372 c-3
-14 -5 -12 -6 8 -1 22 -6 27 -28 28 -25 2 -25 2 -5 6 20 4 22 9 18 36 -4 22
-1 18 10 -13 8 -25 13 -54 11 -65z m-220 -197 c-3 -8 -6 -5 -6 6 -1 11 2 17 5
13 3 -3 4 -12 1 -19z m210 -30 c-3 -7 -5 -2 -5 12 0 14 2 19 5 13 2 -7 2 -19
0 -25z m-25 -27 c2 -17 1 -28 -4 -25 -8 5 -12 54 -4 54 2 0 6 -13 8 -29z
m-407 -151 c-3 -5 -12 -10 -18 -10 -7 0 -6 4 3 10 19 12 23 12 15 0z m212
-386 c-3 -3 -12 -4 -19 -1 -8 3 -5 6 6 6 11 1 17 -2 13 -5z m-179 -99 c-3 -3
-9 2 -12 12 -6 14 -5 15 5 6 7 -7 10 -15 7 -18z m417 -175 c13 -6 15 -9 5 -9
-8 0 -22 4 -30 9 -18 12 -2 12 25 0z m295 -14 c0 -3 -4 -8 -10 -11 -5 -3 -10
-1 -10 4 0 6 5 11 10 11 6 0 10 -2 10 -4z m7 -38 c-3 -8 -6 -5 -6 6 -1 11 2
17 5 13 3 -3 4 -12 1 -19z m-77 -119 c13 -9 13 -10 -1 -6 -9 3 -22 0 -28 -6
-7 -7 -11 -7 -11 -1 0 24 17 29 40 13z m-415 -243 c-14 -10 -25 -11 -37 -5
-24 13 -23 14 19 17 34 2 36 1 18 -12z m160 -14 c-3 -3 -11 0 -18 7 -9 10 -8
11 6 5 10 -3 15 -9 12 -12z m15 -23 c0 -10 -27 -19 -34 -12 -11 12 -6 19 14
19 11 0 20 -3 20 -7z m-73 -59 c-14 -11 -29 -20 -34 -20 -11 1 37 40 49 40 6
0 -1 -9 -15 -20z m-347 -164 c0 -3 -4 -8 -10 -11 -5 -3 -10 -1 -10 4 0 6 5 11
10 11 6 0 10 -2 10 -4z m20 -30 c0 -2 -9 -6 -20 -9 -11 -3 -18 -1 -14 4 5 9
34 13 34 5z"/>
<path d="M6104 5360 c-41 -16 -157 -176 -222 -305 -149 -299 -147 -689 6
-1003 72 -146 143 -196 227 -156 43 20 63 55 135 226 30 70 56 126 58 123 2
-2 19 -38 37 -80 53 -120 109 -208 174 -268 73 -67 141 -101 244 -124 159 -34
326 17 447 138 36 36 76 85 89 110 l23 45 -77 105 c-43 57 -81 108 -86 113 -4
5 -22 -22 -39 -60 -39 -86 -69 -125 -127 -165 -39 -27 -58 -33 -118 -37 -85
-5 -131 14 -199 82 -48 47 -66 82 -162 311 -96 229 -104 245 -138 266 -35 22
-90 24 -125 6 -33 -16 -53 -52 -121 -220 -32 -78 -62 -141 -66 -140 -15 3 -42
154 -43 235 -2 127 36 282 100 408 15 31 57 93 93 139 59 74 66 88 66 127 0
56 -22 99 -60 119 -31 16 -83 19 -116 5z"/>
<path d="M6851 5140 c-42 -58 -54 -101 -49 -179 3 -53 10 -77 33 -114 18 -28
36 -46 45 -45 8 2 30 28 47 58 28 46 33 63 33 120 0 67 -20 127 -59 176 l-20
25 -30 -41z"/>
<path d="M7257 4990 c-118 -31 -211 -86 -286 -168 -56 -59 -77 -75 -119 -87
-66 -20 -94 -58 -100 -135 -4 -52 -2 -60 28 -93 38 -44 85 -59 138 -45 49 13
68 31 89 87 10 26 56 93 109 156 112 135 214 274 214 292 0 7 -1 13 -2 12 -2
0 -34 -9 -71 -19z"/>
<path d="M6526 4954 c26 -107 117 -186 216 -188 25 -1 49 2 53 6 4 4 2 22 -4
40 -33 96 -108 154 -211 165 l-61 6 7 -29z"/>
<path d="M6220 2240 l0 -440 75 0 75 0 0 83 c0 82 0 82 41 130 23 26 44 47 48
47 5 0 153 -203 179 -247 8 -13 174 -21 181 -8 2 4 -52 83 -119 177 -67 94
-123 176 -124 182 0 7 49 66 109 130 61 65 112 122 113 127 2 5 -36 9 -85 9
l-88 0 -125 -136 -125 -135 -3 261 -2 260 -75 0 -75 0 0 -440z"/>
<path d="M7105 2654 c-71 -26 -135 -105 -135 -166 0 -45 20 -94 60 -146 22
-29 40 -56 40 -61 0 -5 -15 -15 -32 -22 -49 -20 -106 -77 -136 -133 -63 -124
-3 -276 123 -311 148 -41 256 -20 353 69 l23 21 51 -53 50 -52 65 0 65 0 -19
24 c-10 13 -45 54 -78 91 l-59 67 18 32 c17 29 106 224 106 232 0 2 -20 4 -44
4 l-44 0 -16 -67 c-16 -64 -57 -144 -74 -142 -4 0 -24 21 -44 47 -21 26 -68
80 -104 121 l-67 74 39 20 c102 52 154 120 154 202 0 74 -37 126 -110 152 -47
16 -136 15 -185 -3z m148 -45 c49 -22 74 -116 46 -172 -16 -32 -70 -87 -100
-102 -29 -16 -36 -10 -88 64 -26 36 -38 111 -27 156 13 51 108 82 169 54z
m-176 -34 c-7 -13 -13 -20 -15 -15 -2 6 -10 10 -18 10 -8 0 -14 4 -14 10 0 5
6 7 14 4 8 -3 17 -1 21 5 13 22 23 10 12 -14z m273 -121 c0 -3 -7 -12 -15 -20
-12 -13 -15 -13 -15 -1 0 7 3 17 7 20 8 8 23 9 23 1z m-272 -48 c9 2 7 -1 -6
-7 -25 -13 -38 -7 -26 12 5 9 9 10 11 2 3 -7 12 -10 21 -7z m156 -85 c3 -5 -3
-11 -13 -14 -14 -3 -18 -1 -14 9 6 16 19 18 27 5z m-64 -158 c30 -36 86 -99
123 -140 38 -41 67 -80 64 -86 -2 -7 -23 -25 -46 -42 -36 -25 -54 -30 -115
-33 -81 -4 -123 10 -163 56 -40 44 -57 156 -32 205 23 43 81 107 97 106 9 0
42 -30 72 -66z m370 -20 c-19 -34 -21 -35 -17 -10 2 15 0 27 -4 27 -17 0 -9
15 14 25 30 14 32 4 7 -42z m-563 -25 c-3 -8 -6 -5 -6 6 -1 11 2 17 5 13 3 -3
4 -12 1 -19z m-47 -2 c0 -3 -4 -8 -10 -11 -5 -3 -10 -1 -10 4 0 6 5 11 10 11
6 0 10 -2 10 -4z m470 -81 c14 -19 14 -19 -2 -6 -10 7 -18 18 -18 24 0 6 1 8
3 6 1 -2 9 -13 17 -24z m44 -141 c3 -8 2 -12 -4 -9 -6 3 -10 10 -10 16 0 14 7
11 14 -7z m36 6 c0 -5 -2 -10 -4 -10 -3 0 -8 5 -11 10 -3 6 -1 10 4 10 6 0 11
-4 11 -10z m50 -4 c0 -2 -7 -7 -16 -10 -8 -3 -12 -2 -9 4 6 10 25 14 25 6z
m-403 -82 c-3 -3 -12 -4 -19 -1 -8 3 -5 6 6 6 11 1 17 -2 13 -5z"/>
<path d="M9451 2513 l3 -88 -41 -3 -41 -3 -4 -55 -3 -54 43 0 42 0 0 -192 c0
-208 8 -247 59 -293 28 -25 142 -33 207 -15 l44 13 0 54 c0 52 -1 55 -22 50
-78 -19 -94 -18 -121 3 l-27 21 0 180 0 179 85 0 85 0 0 55 0 55 -85 0 -85 0
0 90 0 90 -71 0 -71 0 3 -87z m46 -75 c-3 -8 -6 -5 -6 6 -1 11 2 17 5 13 3 -3
4 -12 1 -19z m60 -20 c-3 -7 -5 -2 -5 12 0 14 2 19 5 13 2 -7 2 -19 0 -25z
m-17 -8 c0 -5 -5 -10 -11 -10 -5 0 -7 5 -4 10 3 6 8 10 11 10 2 0 4 -4 4 -10z
m-44 -18 c-8 -8 -19 -11 -25 -7 -16 9 -6 21 18 21 18 0 19 -2 7 -14z m-29
-104 c-3 -7 -5 -2 -5 12 0 14 2 19 5 13 2 -7 2 -19 0 -25z m46 10 c8 -28 0
-37 -10 -12 -3 10 -11 22 -17 26 -7 5 -5 8 5 8 9 0 19 -10 22 -22z m44 -10
c-3 -7 -5 -2 -5 12 0 14 2 19 5 13 2 -7 2 -19 0 -25z m-20 -20 c-3 -7 -5 -2
-5 12 0 14 2 19 5 13 2 -7 2 -19 0 -25z m-37 -11 c0 -5 -4 -5 -10 -2 -5 3 -10
14 -10 23 0 15 2 15 10 2 5 -8 10 -19 10 -23z m-33 -19 c-3 -8 -6 -5 -6 6 -1
11 2 17 5 13 3 -3 4 -12 1 -19z m51 -324 c0 -15 -4 -22 -10 -16 -5 5 -6 16 -2
25 9 23 12 21 12 -9z m109 -10 c-3 -3 -12 -4 -19 -1 -8 3 -5 6 6 6 11 1 17 -2
13 -5z m26 -21 c-7 -2 -19 -2 -25 0 -7 3 -2 5 12 5 14 0 19 -2 13 -5z"/>
<path d="M5220 2431 c-89 -29 -175 -105 -211 -185 -42 -97 -31 -231 29 -320
33 -49 121 -111 179 -125 60 -16 151 -14 211 4 61 18 152 97 184 159 30 57 37
194 13 265 -21 64 -87 138 -157 176 -45 25 -66 29 -138 32 -47 1 -96 -1 -110
-6z m197 -157 c105 -83 103 -259 -3 -324 -122 -76 -263 -1 -281 149 -9 81 44
174 117 204 8 4 41 5 72 4 46 -3 65 -9 95 -33z"/>
<path d="M6015 2421 c-39 -17 -95 -72 -95 -92 0 -6 -5 -7 -11 -4 -6 4 -9 28
-7 54 l3 46 -72 3 -73 3 0 -316 0 -315 75 0 75 0 0 156 c0 179 8 218 59 276
33 36 42 41 96 47 l60 6 3 78 3 77 -38 0 c-21 0 -56 -9 -78 -19z"/>
<path d="M8023 2430 c-46 -11 -80 -35 -111 -80 -15 -22 -30 -39 -34 -40 -5 0
-8 24 -8 54 l0 54 -66 4 c-39 2 -68 -1 -70 -7 -2 -5 -2 -145 -1 -310 l2 -300
68 -3 67 -3 0 143 c1 177 8 215 51 272 39 52 81 76 133 76 l37 0 -3 72 c-3 79
-6 83 -65 68z m-156 -282 c-3 -8 -6 -5 -6 6 -1 11 2 17 5 13 3 -3 4 -12 1 -19z"/>
<path d="M8352 2421 c-75 -28 -136 -83 -178 -161 -15 -28 -19 -56 -19 -145 0
-105 2 -113 31 -165 98 -174 346 -211 494 -73 39 36 42 28 -31 83 -24 18 -28
18 -40 4 -7 -8 -29 -23 -48 -33 -109 -55 -210 -21 -262 87 -12 26 -26 49 -30
52 -4 3 100 4 232 2 l239 -3 0 48 c0 133 -74 256 -178 300 -58 24 -150 26
-210 4z m308 -117 c0 -13 -5 -24 -10 -24 -6 0 -9 13 -8 29 3 35 18 31 18 -5z
m-140 1 c18 -9 40 -36 55 -65 42 -83 46 -80 -130 -80 -154 0 -155 0 -155 23 1
31 42 96 77 118 35 23 112 25 153 4z m100 5 c0 8 2 11 5 8 3 -3 3 -13 -1 -22
-5 -13 -9 -14 -20 -5 -8 6 -14 16 -14 21 0 6 7 5 15 -2 12 -10 15 -10 15 0z
m-32 -45 c-3 -3 -9 2 -12 12 -6 14 -5 15 5 6 7 -7 10 -15 7 -18z m126 -131
c13 -33 7 -54 -16 -54 -42 0 -51 14 -28 43 25 31 35 34 44 11z m-74 -34 c0 -5
-8 -10 -17 -10 -15 0 -16 2 -3 10 19 12 20 12 20 0z m-200 -216 c0 -2 -9 -4
-20 -4 -11 0 -20 4 -20 9 0 5 9 7 20 4 11 -3 20 -7 20 -9z m83 -1 c-7 -2 -21
-2 -30 0 -10 3 -4 5 12 5 17 0 24 -2 18 -5z"/>
<path d="M8991 2424 c-100 -27 -151 -87 -151 -179 0 -27 8 -60 18 -77 23 -40
99 -84 177 -104 109 -28 154 -71 126 -122 -6 -11 -30 -25 -55 -32 -37 -10 -53
-9 -102 5 -32 9 -70 25 -84 34 -14 10 -30 21 -37 25 -7 4 -24 -11 -43 -39 -18
-26 -30 -47 -28 -49 1 -1 19 -13 38 -27 61 -44 123 -61 217 -60 138 1 213 52
228 156 17 112 -43 176 -205 220 -95 26 -120 43 -120 80 0 53 11 60 97 60 61
-1 87 -6 120 -23 l41 -22 26 47 c15 25 25 47 24 48 -2 1 -16 11 -33 22 -36 25
-127 53 -169 52 -17 0 -55 -7 -85 -15z m-61 -264 c18 -12 2 -12 -25 0 -13 6
-15 9 -5 9 8 0 22 -4 30 -9z m295 -60 c3 -6 -1 -7 -9 -4 -18 7 -21 14 -7 14 6
0 13 -4 16 -10z m-50 -38 c-3 -3 -11 0 -18 7 -9 10 -8 11 6 5 10 -3 15 -9 12
-12z"/>
<path d="M3990 2422 c0 -9 109 -353 168 -532 l28 -85 74 0 74 0 63 199 c35
110 65 201 67 204 3 2 35 -89 71 -202 l67 -206 72 0 72 0 99 303 c55 166 101
308 103 315 3 9 -16 12 -72 12 l-75 0 -11 -37 c-5 -21 -30 -100 -55 -177 -25
-76 -45 -142 -45 -146 0 -5 -5 -21 -11 -37 -10 -26 -13 -22 -43 77 -18 58 -48
153 -66 213 l-34 107 -68 0 -67 0 -32 -102 c-17 -57 -45 -142 -60 -189 -16
-48 -29 -94 -29 -102 0 -55 -24 0 -80 184 l-63 209 -74 0 c-40 0 -73 -4 -73
-8z"/>
<path d="M5342 1558 c-8 -10 -5 -13 13 -13 18 0 21 3 13 13 -6 6 -12 12 -13
12 -1 0 -7 -6 -13 -12z"/>
<path d="M4039 1554 c-9 -3 -22 -16 -30 -30 -18 -35 -3 -55 59 -78 46 -16 52
-22 52 -46 0 -39 -54 -55 -101 -30 -11 6 -19 7 -19 2 0 -24 101 -29 124 -6 35
34 17 69 -49 92 -64 23 -78 46 -45 73 23 20 42 21 85 4 15 -6 17 -5 10 3 -12
13 -63 22 -86 16z"/>
<path d="M4662 1545 c-35 -16 -52 -48 -52 -101 0 -46 45 -94 89 -94 33 0 81
19 81 32 0 12 -10 10 -26 -7 -23 -23 -80 -19 -104 7 -73 79 8 197 101 148 11
-6 19 -7 19 -1 0 8 -53 32 -69 31 -3 -1 -21 -7 -39 -15z"/>
<path d="M6410 1453 c0 -58 3 -104 6 -100 3 3 6 44 5 91 0 53 4 88 11 92 17
11 79 6 94 -7 17 -14 18 -61 2 -77 -7 -7 -30 -13 -52 -13 -33 -2 -35 -3 -12
-6 46 -7 73 4 84 36 20 56 -15 88 -100 90 l-38 1 0 -107z"/>
<path d="M7360 1520 c0 -22 -5 -40 -10 -40 -7 0 -7 -6 0 -19 26 -50 1 -101
-49 -101 -37 0 -51 17 -51 61 0 45 24 73 56 66 13 -2 21 0 18 4 -19 32 -94
-21 -94 -66 0 -62 41 -93 94 -71 26 11 36 11 40 3 2 -7 5 36 5 96 1 59 -1 107
-4 107 -3 0 -5 -18 -5 -40z"/>
<path d="M8353 1479 c3 -93 -8 -119 -53 -119 -33 0 -60 31 -60 67 0 33 36 66
66 60 13 -2 21 0 18 4 -10 16 -54 9 -74 -11 -25 -25 -27 -91 -4 -115 12 -11
31 -15 70 -13 l53 3 0 103 c0 56 -5 102 -10 102 -5 0 -8 -35 -6 -81z"/>
<path d="M8678 1544 c-2 -9 -2 -56 0 -105 l3 -89 72 2 72 2 -67 3 -68 4 0 44
0 44 58 4 57 3 -57 2 -58 2 0 40 0 40 60 0 c33 0 60 4 60 10 0 6 -28 10 -64
10 -51 0 -65 -3 -68 -16z"/>
<path d="M9409 1518 c-1 -24 -1 -62 1 -86 1 -24 -4 -50 -12 -59 -9 -12 -9 -15
0 -9 6 4 12 2 12 -3 0 -6 3 -11 8 -11 4 0 7 47 8 105 1 58 -3 105 -7 105 -5 0
-10 -19 -10 -42z"/>
<path d="M5931 1528 c0 -16 -7 -28 -13 -28 -10 0 -10 -2 -1 -8 7 -4 13 -36 15
-72 3 -64 3 -65 33 -67 28 -2 28 -1 5 5 -23 7 -25 14 -28 69 -3 57 -1 62 20
66 22 4 22 4 1 6 -16 1 -23 9 -26 29 l-4 27 -2 -27z"/>
<path d="M9010 1526 c0 -14 -6 -26 -12 -26 -10 0 -10 -2 -1 -8 7 -4 13 -36 15
-72 3 -64 3 -65 33 -67 20 -1 23 0 8 4 -17 3 -23 12 -24 31 0 15 -1 42 -2 61
-2 25 3 36 18 42 17 6 17 8 3 8 -11 1 -18 9 -18 20 0 11 -4 23 -10 26 -6 4
-10 -5 -10 -19z"/>
<path d="M4208 1490 c-9 -6 -22 -26 -28 -46 -11 -31 -10 -39 7 -62 25 -34 53
-42 88 -27 30 13 30 13 -11 8 -29 -4 -45 -1 -57 12 -33 33 -21 45 43 45 51 0
60 3 60 18 0 45 -61 75 -102 52z m66 -16 c31 -30 20 -44 -34 -44 -54 0 -62 10
-33 42 20 22 46 23 67 2z"/>
<path d="M4350 1444 c0 -73 12 -94 53 -93 l32 1 -30 7 c-29 6 -30 8 -33 74 -4
81 -22 90 -22 11z"/>
<path d="M4460 1442 c0 -33 -5 -64 -12 -71 -11 -11 -10 -12 1 -6 7 4 16 3 20
-3 4 -6 8 22 9 63 1 43 -3 75 -8 75 -6 0 -10 -26 -10 -58z"/>
<path d="M4827 1493 c-11 -10 -8 -143 2 -143 11 0 20 114 9 118 -4 2 -4 10 -1
18 5 15 1 18 -10 7z"/>
<path d="M4870 1490 c-8 -5 -10 -10 -5 -10 6 0 17 5 25 10 8 5 11 10 5 10 -5
0 -17 -5 -25 -10z"/>
<path d="M4941 1474 c-37 -47 -22 -103 32 -123 59 -23 112 39 87 99 -23 56
-85 68 -119 24z m93 -6 c33 -46 13 -108 -34 -108 -37 0 -60 24 -60 62 0 61 63
91 94 46z"/>
<path d="M5156 1491 c-4 -5 3 -7 14 -4 35 9 50 -14 50 -78 0 -33 4 -59 10 -59
16 0 12 103 -6 128 -15 22 -58 30 -68 13z"/>
<path d="M5302 1477 c-24 -26 -28 -57 -11 -90 16 -29 28 -37 64 -37 39 0 51 9
65 45 29 77 -63 141 -118 82z m90 -4 c20 -18 24 -64 8 -94 -15 -28 -74 -26
-94 3 -22 31 -20 58 6 85 25 27 54 29 80 6z"/>
<path d="M5475 1425 c0 -41 3 -75 7 -75 12 0 15 124 3 138 -8 9 -11 -7 -10
-63z"/>
<path d="M5516 1491 c-4 -5 4 -7 15 -4 32 9 49 -21 50 -86 l2 -56 6 56 c6 60
23 89 50 89 30 0 41 -23 41 -83 0 -40 3 -56 11 -51 14 9 5 109 -12 130 -15 18
-48 18 -69 -1 -15 -14 -18 -14 -30 0 -14 16 -55 20 -64 6z"/>
<path d="M5761 1474 c-24 -30 -26 -55 -10 -87 14 -26 28 -37 49 -37 8 0 4 6
-10 13 -27 13 -40 57 -18 58 8 0 7 3 -3 7 -24 10 -6 50 26 58 41 10 89 -45 53
-59 -7 -3 -3 -6 9 -6 17 -1 20 3 16 22 -15 60 -76 77 -112 31z"/>
<path d="M6030 1425 c0 -45 4 -75 10 -75 7 0 10 29 9 75 -1 41 -6 75 -10 75
-5 0 -9 -34 -9 -75z"/>
<path d="M6080 1490 c-13 -8 -13 -10 2 -10 9 0 20 5 23 10 8 13 -5 13 -25 0z"/>
<path d="M6155 1474 c-27 -30 -31 -54 -14 -87 16 -29 28 -37 64 -37 36 0 48 8
64 37 16 32 14 57 -10 87 -28 35 -72 35 -104 0z m86 -2 c25 -21 30 -71 9 -96
-16 -21 -64 -20 -84 0 -24 24 -20 80 6 98 29 21 41 20 69 -2z"/>
<path d="M6615 1475 c-50 -49 -22 -128 45 -128 45 0 70 28 70 78 0 34 -5 46
-25 59 -34 23 -62 20 -90 -9z m85 -5 c24 -24 26 -72 4 -94 -8 -9 -29 -16 -44
-16 -55 0 -77 72 -34 114 21 22 50 20 74 -4z"/>
<path d="M6780 1428 c0 -43 4 -78 9 -78 4 0 6 10 4 23 -7 37 15 105 36 112 37
11 51 -4 52 -59 1 -28 1 -57 0 -63 -1 -7 3 -13 9 -13 6 0 10 23 10 53 0 62 23
94 59 82 23 -7 29 -25 34 -95 3 -40 4 -39 5 13 1 32 -3 67 -8 78 -13 24 -53
25 -75 2 -16 -16 -18 -16 -27 0 -10 20 -40 22 -70 6 -16 -9 -23 -8 -29 2 -5 9
-9 -17 -9 -63z"/>
<path d="M7070 1480 c-26 -26 -27 -90 -2 -113 25 -23 85 -22 105 1 60 66 -41
174 -103 112z m89 -16 c25 -32 26 -52 5 -82 -18 -26 -65 -30 -88 -6 -35 35 -5
114 43 114 11 0 29 -12 40 -26z"/>
<path d="M7442 1477 c-26 -27 -29 -73 -6 -105 11 -16 25 -22 54 -22 49 0 70
21 70 71 0 72 -71 106 -118 56z m92 -9 c35 -49 11 -108 -43 -108 -52 0 -75 59
-41 103 26 33 63 35 84 5z"/>
<path d="M7611 1428 c-1 -43 2 -78 7 -78 11 0 13 104 3 131 -7 18 -10 6 -10
-53z"/>
<path d="M7660 1490 c-8 -5 -10 -10 -5 -10 6 0 17 5 25 10 8 5 11 10 5 10 -5
0 -17 -5 -25 -10z"/>
<path d="M7735 1475 c-59 -59 -4 -151 74 -124 29 10 38 24 42 69 3 29 -1 39
-23 60 -29 27 -64 25 -93 -5z m85 -5 c24 -24 26 -72 4 -94 -38 -38 -104 -5
-104 51 0 28 33 63 60 63 11 0 29 -9 40 -20z"/>
<path d="M8000 1480 c-12 -12 -20 -33 -20 -55 0 -46 29 -75 74 -75 19 0 38 5
41 10 4 7 -2 9 -19 4 -47 -11 -74 2 -82 41 -13 73 58 118 90 56 9 -16 12 -31
9 -35 -4 -3 -1 -6 5 -6 20 0 13 35 -11 58 -29 27 -61 28 -87 2z"/>
<path d="M8437 1482 c-22 -24 -22 -95 -1 -116 17 -17 71 -21 93 -7 10 6 1 8
-25 4 -30 -4 -45 -1 -57 12 -26 26 -21 43 16 48 l32 4 -32 1 c-37 2 -43 20
-15 45 36 32 81 15 85 -32 1 -12 5 -21 9 -21 15 0 8 27 -13 54 -24 31 -68 35
-92 8z"/>
<path d="M8872 1488 c-25 -25 -13 -48 33 -68 47 -20 51 -26 36 -49 -6 -10 -21
-12 -50 -8 -23 3 -39 1 -35 -4 6 -10 64 -12 88 -3 9 3 16 17 16 30 0 20 -9 29
-45 44 -47 20 -51 26 -36 49 6 10 19 12 40 8 20 -4 30 -3 26 3 -9 14 -59 12
-73 -2z"/>
<path d="M9110 1446 c0 -76 12 -96 55 -96 18 0 36 4 39 9 3 4 -11 8 -32 7
l-37 -1 -3 60 c-4 80 -22 97 -22 21z"/>
<path d="M9220 1438 c0 -35 5 -70 10 -78 7 -10 10 9 10 63 0 45 -4 77 -10 77
-6 0 -10 -27 -10 -62z"/>
<path d="M9307 1482 c-47 -51 -18 -133 46 -131 l32 1 -34 8 c-40 9 -51 24 -51
66 0 42 30 68 67 60 21 -5 24 -4 13 4 -23 15 -55 12 -73 -8z"/>
<path d="M9495 1475 c-27 -26 -31 -54 -14 -88 16 -29 28 -37 64 -37 39 0 51 9
65 44 30 80 -56 141 -115 81z m83 -1 c24 -17 30 -61 12 -95 -13 -23 -71 -26
-89 -5 -19 22 -16 74 4 96 22 24 43 25 73 4z"/>
<path d="M9672 1488 c-16 -16 -15 -45 1 -55 6 -4 26 -12 42 -18 20 -7 30 -17
30 -30 0 -17 -6 -20 -48 -19 -27 0 -42 -3 -35 -8 15 -9 60 -10 82 -2 9 3 16
17 16 30 0 20 -9 29 -45 44 -47 20 -51 26 -36 49 6 10 20 12 47 7 28 -5 35 -4
24 3 -20 14 -63 14 -78 -1z"/>
<path d="M5110 1420 c0 -38 4 -70 9 -70 15 0 18 116 4 129 -10 9 -13 -3 -13
-59z"/>
<path d="M5808 1423 c7 -3 16 -2 19 1 4 3 -2 6 -13 5 -11 0 -14 -3 -6 -6z"/>
<path d="M8018 1423 c12 -2 32 -2 45 0 12 2 2 4 -23 4 -25 0 -35 -2 -22 -4z"/>
<path d="M5835 1360 c-16 -7 -17 -9 -3 -9 9 -1 20 4 23 9 7 11 7 11 -20 0z"/>
<path d="M12156 1084 c-3 -9 -6 -256 -6 -550 l0 -534 780 0 780 0 0 550 0 550
-774 0 c-696 0 -774 -2 -780 -16z m1003 -68 c18 -21 10 -87 -12 -100 -15 -9
-21 -7 -33 8 -38 52 5 140 45 92z m172 -7 c9 -18 7 -27 -10 -50 l-21 -28 23
-4 c13 -3 6 -5 -16 -6 l-39 -1 26 31 c33 39 33 59 0 59 -14 0 -23 4 -19 10 11
17 44 11 56 -11z m76 9 c5 -7 9 -30 9 -52 -1 -43 -22 -64 -52 -51 -16 7 -15 9
10 14 17 3 29 9 28 14 -1 4 -2 12 -2 17 0 6 -8 10 -17 10 -17 1 -17 1 0 11 23
14 22 29 -4 29 -11 0 -17 5 -14 10 9 14 31 13 42 -2z m173 2 c29 -18 12 -110
-20 -110 -33 0 -52 77 -25 103 19 19 24 20 45 7z m-521 -17 c1 9 6 17 12 17 7
0 9 -11 6 -30 -4 -17 -2 -30 3 -30 5 0 2 -9 -7 -20 -16 -19 -18 -19 -25 -3 -6
16 -7 16 -7 -1 -1 -20 -1 -20 -15 0 -9 11 -10 21 -5 25 6 3 9 10 8 15 -1 5 2
18 6 28 8 19 9 19 16 0 7 -17 8 -17 8 -1z m169 -35 l-1 -53 -6 45 c-4 30 -10
44 -19 42 -8 -1 -11 2 -7 8 3 5 13 10 21 10 10 0 14 -13 12 -52z m272 28 c0
-13 2 -30 5 -38 7 -18 -15 -48 -22 -30 -2 6 -13 12 -24 12 -25 0 -24 21 2 54
26 32 39 33 39 2z m-331 -233 c6 -21 18 -47 27 -58 13 -17 16 -18 24 -5 17 26
12 43 -11 37 -13 -3 -19 -1 -16 6 2 7 15 12 28 12 30 0 38 -38 13 -66 -16 -18
-16 -19 7 -27 13 -5 22 -13 20 -18 -6 -12 67 -61 102 -69 15 -4 27 -10 27 -13
0 -4 -26 -19 -57 -34 -56 -26 -57 -27 -24 -27 30 -1 33 -3 27 -26 -9 -34 -49
-101 -54 -87 -2 6 6 28 17 50 l20 40 -34 4 c-30 3 -35 1 -35 -17 0 -11 -7 -31
-16 -43 -14 -20 -14 -22 0 -22 9 0 16 -4 16 -10 0 -5 -17 -10 -39 -10 -35 0
-39 -3 -44 -30 -4 -16 -10 -30 -15 -30 -4 0 -19 25 -33 55 -25 56 -41 65 -47
27 -4 -29 -22 -28 -23 1 l-2 22 -4 -22 c-2 -13 -8 -23 -13 -23 -13 0 -17 32
-8 58 5 14 4 22 -3 22 -8 0 -8 5 1 15 17 20 7 30 -55 56 -30 12 -55 25 -55 29
0 3 17 12 38 19 56 20 102 58 101 84 -1 17 -2 18 -6 5 -2 -10 -9 -18 -14 -18
-6 0 -8 4 -5 9 4 5 0 12 -6 14 -10 4 -10 8 1 15 7 5 11 15 7 21 -4 6 -2 21 5
33 12 22 12 22 20 3 6 -17 8 -17 8 -2 1 9 5 17 10 17 13 0 22 -43 10 -51 -7
-4 -5 -9 5 -12 12 -5 16 0 16 17 0 12 9 31 20 41 11 10 20 24 20 32 0 26 17
12 29 -24z m166 -13 c-3 -5 -15 -10 -26 -10 -25 0 -25 -17 0 -25 37 -11 37
-59 0 -70 -20 -7 -39 1 -39 14 0 4 10 7 21 7 29 -1 37 24 10 31 -15 4 -21 13
-21 34 0 26 4 29 31 29 17 0 28 -4 24 -10z m85 -10 c18 -33 -13 -100 -47 -100
-20 0 -15 17 7 23 11 3 20 10 20 17 0 6 -5 8 -10 5 -14 -9 -40 13 -40 34 0 40
52 55 70 21z m75 -12 c0 -14 3 -30 8 -34 22 -22 -15 -60 -47 -48 -23 9 -20 27
3 19 26 -8 39 15 17 31 -11 8 -13 14 -7 19 18 11 12 25 -10 25 -12 0 -17 4
-14 11 4 5 17 9 28 7 16 -2 22 -10 22 -30z m99 9 c14 -22 -20 -90 -46 -95 -26
-5 -22 15 5 22 l22 7 -22 11 c-28 14 -39 44 -22 64 16 19 49 14 63 -9z m-179
-297 c0 -50 -2 -55 -24 -58 -13 -2 -28 1 -34 7 -8 8 -3 11 16 11 17 0 27 5 27
15 0 8 -7 15 -15 15 -8 0 -15 4 -15 9 0 5 7 11 15 15 21 8 19 28 -2 25 -28 -2
-35 0 -28 12 4 5 19 9 33 7 26 -3 27 -6 27 -58z m82 43 c4 -10 8 -33 8 -52 0
-39 -22 -59 -51 -46 -17 8 -16 9 9 13 31 4 35 17 10 31 -15 8 -16 12 -5 22 18
19 15 32 -8 26 -11 -3 -20 -2 -20 2 0 26 46 28 57 4z m89 -21 c1 -18 4 -35 7
-38 4 -4 2 -15 -4 -25 -10 -20 -69 -27 -69 -9 0 6 11 10 25 10 16 0 25 6 25
15 0 8 -7 15 -15 15 -8 0 -15 5 -15 10 0 6 7 10 15 10 8 0 15 7 15 15 0 9 -10
15 -26 15 -15 0 -23 4 -19 11 4 5 19 9 33 7 23 -3 27 -8 28 -36z m-366 -227
c0 -7 6 -15 13 -18 9 -3 14 -24 15 -56 1 -53 2 -52 -63 -65 -19 -4 -25 -3 -17
2 8 5 14 13 15 18 2 9 6 10 35 13 7 0 10 6 7 11 -4 6 -10 8 -15 5 -18 -11 -22
19 -5 31 10 8 16 17 12 20 -4 4 -13 2 -21 -5 -11 -9 -15 -9 -19 1 -3 7 -6 -5
-6 -28 -1 -43 -15 -64 -43 -64 -20 0 -38 29 -38 60 0 12 -4 18 -10 15 -6 -4
-8 -10 -5 -15 3 -4 1 -18 -3 -31 -9 -24 -52 -35 -52 -13 0 7 -6 14 -12 17 -10
3 -10 7 -1 17 6 7 10 18 7 24 -2 6 6 22 17 36 l20 25 -6 -25 c-5 -21 -4 -22 5
-7 13 21 30 22 30 2 0 -20 16 -19 24 1 5 13 15 15 40 11 23 -4 41 0 53 10 10
8 12 12 6 8 -9 -4 -11 -1 -7 9 7 18 24 12 24 -9z m-40 -7 c0 -6 -7 -7 -16 -4
-9 3 -18 6 -20 6 -3 0 -3 4 1 10 7 11 35 2 35 -12z m95 -14 c-3 -45 -15 -58
-15 -16 0 24 -5 32 -17 33 -15 0 -15 2 2 9 31 13 32 12 30 -26z m-155 22 c0
-2 -7 -7 -16 -10 -8 -3 -12 -2 -9 4 6 10 25 14 25 6z m227 -18 c-3 -8 -6 -5
-6 6 -1 11 2 17 5 13 3 -3 4 -12 1 -19z m-3 -60 c22 -65 22 -66 1 -58 -11 5
-19 13 -17 19 3 16 -38 13 -44 -3 -3 -8 -12 -17 -19 -20 -12 -4 -4 29 30 122
10 26 27 6 49 -60z m31 62 c-8 -13 1 -13 24 -1 10 6 23 6 31 1 11 -7 7 -12
-15 -21 l-30 -12 25 -6 c19 -5 25 -13 25 -35 0 -36 -27 -56 -52 -40 -22 14
-28 124 -7 124 3 0 2 -4 -1 -10z m129 -6 c12 -12 13 -20 6 -35 -7 -13 -7 -19
0 -19 5 0 10 -9 10 -20 0 -22 -34 -44 -56 -36 -17 7 -19 27 -1 25 39 -5 52 15
17 26 -23 7 -27 25 -5 25 8 0 15 5 15 11 0 6 -9 9 -20 6 -13 -3 -20 0 -20 8 0
8 8 16 18 18 9 3 18 5 19 6 1 0 9 -6 17 -15z m114 -4 c3 -8 -1 -11 -10 -7 -26
9 -60 -21 -52 -46 8 -27 21 -36 44 -30 10 3 21 0 24 -6 12 -19 -42 -24 -69 -7
-42 28 -29 98 20 109 27 6 38 3 43 -13z m-294 -130 c-3 -2 -9 2 -14 10 -8 13
-10 13 -10 1 0 -8 -3 -12 -6 -8 -4 3 -4 14 0 23 6 16 8 15 20 -2 8 -10 12 -21
10 -24z"/>
<path d="M13116 994 c-9 -22 4 -64 19 -64 15 0 28 42 19 64 -3 9 -12 16 -19
16 -7 0 -16 -7 -19 -16z"/>
<path d="M13544 997 c-9 -25 0 -62 16 -62 10 0 15 10 15 34 0 36 -21 54 -31
28z"/>
<path d="M13040 970 c0 -5 5 -10 10 -10 6 0 10 5 10 10 0 6 -4 10 -10 10 -5 0
-10 -4 -10 -10z"/>
<path d="M13467 983 c-10 -9 -9 -23 2 -23 5 0 11 7 15 15 5 15 -5 20 -17 8z"/>
<path d="M13040 699 c0 -5 5 -7 10 -4 6 3 10 8 10 11 0 2 -4 4 -10 4 -5 0 -10
-5 -10 -11z"/>
<path d="M13065 670 c-3 -5 -1 -10 4 -10 6 0 11 5 11 10 0 6 -2 10 -4 10 -3 0
-8 -4 -11 -10z"/>
<path d="M13210 440 c-6 -11 -8 -20 -6 -20 3 0 10 9 16 20 6 11 8 20 6 20 -3
0 -10 -9 -16 -20z"/>
<path d="M13370 720 c0 -15 5 -20 18 -18 9 2 17 10 17 18 0 8 -8 16 -17 18
-13 2 -18 -3 -18 -18z"/>
<path d="M13540 719 c0 -14 5 -19 17 -17 26 5 29 38 4 38 -15 0 -21 -6 -21
-21z"/>
<path d="M13114 176 c-6 -26 1 -46 17 -46 5 0 9 16 9 35 0 40 -17 47 -26 11z"/>
<path d="M13387 154 c-9 -10 2 -24 19 -24 8 0 14 7 14 15 0 15 -21 21 -33 9z"/>
</g>
</svg>
